<svg xmlns="http://www.w3.org/2000/svg" viewBox="0 0 200 200" fill="#fff">
  <g transform="translate(0,200) scale(0.1,-0.1)">
    <path d="M1275 1786c-31-31-46-58-55-96-9-37-19-54-35-62-23-10-35-44-35-94 0-26 10-30 27-13 18 18 73 1 83-27 13-34 24-30 51 20 20 38 21 48 11 71-10 22-9 32 7 63 10 20 22 51 25 69 8 36-10 113-26 113-6 0-30-20-53-44zm35-51c19-23 8-50-20-50-16 0-26 6-28 18-4 18 14 47 28 47 4 0 13-7 20-15z"/>
    <path d="M840 1694c-19-8-46-26-60-39-14-13-44-26-70-30-91-14-171-81-192-160-9-34-18-44-44-54-47-17-120-100-134-152-48-178 126-346 297-286 40 14 43 13 63-9 33-34 114-65 191-71 69-6 71-7 89-43 42-82 121-124 222-118 56 3 75 9 113 36 25 18 48 32 50 32 11 0 30-49 35-90l6-45 22 42c14 27 22 60 22 91 0 49 1 50 34 56 52 10 112 60 142 117 22 44 25 63 23 123-2 40 3 89 10 113 21 63 8 110-45 160-29 29-44 51-44 68 0 37-23 86-59 128-34 38-110 74-136 64-25-10-17-34 13-40 73-15 142-98 142-173 0-36 4-43 38-65 25-16 42-37 51-65 13-38 13-45-7-84-18-37-20-49-10-89 27-119-65-230-191-231-39 0-48-5-79-41-20-23-51-48-69-55-42-18-127-18-161 0-41 21-82 69-97 112l-13 37-83 1c-73 1-91 5-136 30-29 16-62 39-73 51l-22 23-41-19c-23-10-58-19-77-19-48 0-117 37-154 82-79 100-20 263 107 293 19 5 29 15 33 34 20 96 84 159 171 169 36 4 58 13 86 39 21 19 49 38 63 43 41 16 102 11 146-11 40-21 42-21 72-3 16 9 43 20 60 24 18 3 32 13 34 23 4 22-44 23-93 2-31-12-40-12-76 0-53 19-124 18-169-1z"/>
    <path d="M1047 1519c-27-15-22-57 7-65 32-8 46 2 46 31 0 29-28 47-53 34z"/>
    <path d="M1183 1450c-9-23-23-40-32-40-9 0-34-11-55-25-36-22-41-22-62-8-13 8-38 16-54 18-18 1-44 14-61 31-37 35-104 41-137 11-18-17-25-17-55-6-52 18-106-4-130-54-15-29-24-37-45-37-97 0-165-131-112-218 50-82 172-97 229-28 12 14 16 12 35-16 12-18 40-45 63-62 34-24 55-30 115-34 53-3 84 0 111 11l37 16v-38c0-23 9-52 23-72 24-37 97-79 137-79 49 0 113 42 140 90l25 46 39-13c51-18 106-3 140 38 35 41 42 74 27 123-7 23-15 59-18 81-13 92-94 141-171 101-22-11-36-12-69-3-35 9-45 18-67 61-22 43-25 59-20 99 9 60-11 64-33 7zm-281-116c11-24 9-29-16-51-25-22-30-23-50-10-44 30-28 87 25 87 22 0 32-7 41-26zm287-103c8-14 7-22-4-31-19-16-45-6-45 18 0 36 33 45 49 13zm-569-32c14-26-4-51-34-47-24 4-33 33-16 53 17 21 37 19 50-6zm438-26c-2-10-10-18-18-18-8 0-16 8-18 18-2 12 3 17 18 17 15 0 20-5 18-17zm92-73c0-5-2-10-4-10-3 0-8 5-11 10-3 6-1 10 4 10 6 0 11-4 11-10zm209-4c9-10 8-16-4-26-19-16-41 1-32 24 8 20 21 20 36 2z"/>
    <path d="M1347 1344c-8-8 1-24 14-24 5 0 9 7 9 15 0 15-12 20-23 9z"/>
    <path d="M1280 1330c0-5 5-10 10-10 6 0 10 5 10 10 0 6-4 10-10 10-5 0-10-4-10-10z"/>
  </g>
</svg>
